<svg width="200" height="200" viewBox="0 0 500 500" fill="#2e4d36" xmlns="http://www.w3.org/2000/svg">
<rect width="0" height="0" fill="#3D6042"/>
<path fill-rule="evenodd" clip-rule="evenodd" d="M133.75 244.743C132.736 244.743 132.229 244.743 131.867 244.595C131.162 244.308 130.68 243.645 130.626 242.886C130.598 242.495 130.755 242.013 131.069 241.049L146.743 192.946C146.919 192.405 147.007 192.134 147.148 191.917C147.418 191.497 147.836 191.193 148.32 191.066C148.57 191 148.855 191 149.424 191H163.189C163.716 191 163.979 191 164.215 191.058C164.669 191.17 165.07 191.437 165.347 191.814C165.491 192.009 165.592 192.252 165.794 192.739L187.38 244.743H171.715C171.197 244.743 170.938 244.743 170.706 244.687C170.257 244.578 169.861 244.318 169.582 243.95C169.438 243.759 169.335 243.522 169.128 243.047L167.418 239.11C167.211 238.635 167.108 238.398 166.964 238.207C166.685 237.84 166.289 237.579 165.84 237.471C165.608 237.414 165.349 237.414 164.831 237.414H154.741C153.667 237.414 153.13 237.414 152.758 237.257C152.032 236.951 151.554 236.247 151.535 235.46C151.526 235.056 151.723 234.557 152.118 233.558L154.715 226.984C154.912 226.485 155.011 226.236 155.154 226.036C155.43 225.65 155.835 225.375 156.296 225.26C156.534 225.2 156.802 225.2 157.338 225.2H159.043C160.178 225.2 160.745 225.2 161.128 225.033C161.873 224.708 162.347 223.965 162.328 223.152C162.318 222.735 162.078 222.221 161.6 221.191L159.902 217.539C159.207 216.042 158.859 215.294 158.467 214.995C157.699 214.408 156.622 214.455 155.907 215.105C155.543 215.437 155.26 216.212 154.695 217.762L145.541 242.888C145.353 243.405 145.259 243.664 145.116 243.872C144.842 244.273 144.432 244.56 143.961 244.681C143.717 244.743 143.442 244.743 142.892 244.743H133.75ZM187.38 244.743V194.634C187.38 193.871 187.38 193.489 187.483 193.181C187.682 192.584 188.15 192.116 188.747 191.917C189.055 191.814 189.437 191.814 190.2 191.814H228.122C228.432 191.814 228.587 191.814 228.736 191.837C229.022 191.88 229.295 191.985 229.537 192.144C229.663 192.227 229.778 192.331 230.008 192.538L235.464 197.448C235.743 197.699 235.882 197.824 235.992 197.966C236.204 198.239 236.341 198.562 236.39 198.904C236.416 199.082 236.41 199.269 236.396 199.644L235.677 220.029C235.666 220.344 235.661 220.501 235.632 220.652C235.577 220.94 235.459 221.213 235.287 221.451C235.197 221.575 235.087 221.687 234.865 221.911L230.728 226.1C230.598 226.232 230.533 226.298 230.465 226.355C230.15 226.621 229.761 226.784 229.351 226.821C229.262 226.828 229.169 226.828 228.984 226.828C228.255 226.828 227.891 226.828 227.653 226.888C226.501 227.175 225.851 228.396 226.257 229.512C226.34 229.742 226.544 230.044 226.951 230.649L233.483 240.348C234.224 241.449 234.595 242 234.662 242.446C234.793 243.317 234.339 244.171 233.543 244.549C233.135 244.743 232.472 244.743 231.144 244.743H219.463C219.033 244.743 218.818 244.743 218.619 244.702C218.235 244.623 217.883 244.434 217.606 244.157C217.463 244.013 217.344 243.833 217.108 243.474L205.539 225.906C205.406 225.702 205.339 225.601 205.285 225.494C205.183 225.288 205.116 225.067 205.089 224.839C205.075 224.72 205.075 224.598 205.075 224.355V218.249C205.075 217.485 205.075 217.104 205.177 216.796C205.377 216.199 205.845 215.73 206.442 215.531C206.75 215.428 207.131 215.428 207.895 215.428H217.537C218.3 215.428 218.681 215.429 218.989 215.326C219.586 215.127 220.055 214.658 220.254 214.062C220.357 213.753 220.357 213.372 220.357 212.608V208.477C220.357 207.714 220.357 207.332 220.254 207.024C220.055 206.427 219.586 205.959 218.989 205.76C218.681 205.657 218.3 205.657 217.537 205.657H206.286C205.523 205.657 205.141 205.657 204.833 205.76C204.236 205.959 203.768 206.427 203.569 207.024C203.466 207.332 203.466 207.714 203.466 208.477V241.923C203.466 242.686 203.466 243.068 203.363 243.376C203.164 243.973 202.696 244.441 202.099 244.64C201.791 244.743 201.409 244.743 200.646 244.743H187.38ZM36.1794 238.238C35.9467 238.002 35.8303 237.884 35.7374 237.754C35.5586 237.503 35.4402 237.215 35.3912 236.911C35.3657 236.753 35.3657 236.587 35.3657 236.256V199.391C35.3657 199.098 35.3657 198.951 35.3903 198.796C35.4347 198.515 35.5619 198.199 35.7245 197.965C35.8143 197.836 35.9058 197.741 36.0886 197.551C36.8657 196.741 37.9894 195.623 39.1809 194.436C39.772 193.848 40.3797 193.242 40.9701 192.65C41.2113 192.408 41.332 192.287 41.4626 192.193C41.7161 192.01 42.0011 191.891 42.3098 191.84C42.4688 191.814 42.6387 191.813 42.9785 191.813C45.7835 191.806 48.8852 191.779 52.2782 191.749C60.4844 191.677 70.394 191.59 81.9272 191.748C82.9864 191.763 83.5162 191.77 83.8861 191.932C84.6045 192.246 85.0754 192.956 85.0848 193.74C85.0897 194.144 84.8895 194.636 84.4891 195.62L81.1218 203.899C80.9219 204.391 80.8221 204.637 80.6785 204.834C80.4015 205.214 79.9992 205.485 79.5423 205.598C79.3054 205.657 79.0402 205.657 78.5097 205.657H54.2719C53.5086 205.657 53.1271 205.657 52.819 205.76C52.2222 205.959 51.7539 206.427 51.5548 207.024C51.452 207.332 51.452 207.714 51.452 208.477V228.08C51.452 228.843 51.452 229.225 51.5548 229.533C51.7539 230.13 52.2222 230.598 52.819 230.797C53.1271 230.9 53.5086 230.9 54.2719 230.9H67.1311C67.8943 230.9 68.2759 230.9 68.584 230.797C69.1808 230.598 69.6491 230.13 69.8483 229.533C69.9511 229.225 69.951 228.843 69.951 228.08V224.701C69.951 224.376 69.9511 224.213 69.9272 224.06C69.8808 223.763 69.7719 223.488 69.6021 223.24C69.5146 223.112 69.4026 222.992 69.1787 222.754C66.9776 220.412 60.9413 213.886 62.7122 214.614C64.3416 215.284 75.938 214.94 81.4856 214.733C82.2861 214.703 82.6864 214.688 83.005 214.784C83.6255 214.971 84.1112 215.439 84.3209 216.052C84.4286 216.367 84.4286 216.766 84.4286 217.565V241.109C84.4286 241.872 84.4285 242.253 84.3257 242.562C84.1266 243.158 83.6584 243.627 83.0616 243.826C82.7534 243.928 82.3718 243.929 81.6086 243.929H42.9785C42.6417 243.929 42.4732 243.928 42.3127 243.902C42.0041 243.852 41.7116 243.729 41.4587 243.545C41.3272 243.45 41.2089 243.33 40.9722 243.09L36.1794 238.238ZM88.4501 237.179C88.4501 237.48 88.4502 237.63 88.4715 237.775C88.5125 238.053 88.6116 238.32 88.7627 238.557C88.8412 238.681 88.9398 238.795 89.1366 239.023L93.2368 243.767C93.4772 244.045 93.5973 244.184 93.7342 244.295C93.9976 244.509 94.3111 244.653 94.6452 244.712C94.8188 244.743 95.0027 244.743 95.3703 244.743H125.878C126.431 244.743 126.707 244.743 126.952 244.68C127.424 244.559 127.836 244.269 128.11 243.866C128.251 243.657 128.345 243.396 128.532 242.876L134.13 227.291C134.178 227.157 134.202 227.09 134.221 227.022C134.258 226.891 134.281 226.757 134.291 226.621C134.296 226.551 134.296 226.48 134.296 226.337V194.634C134.296 193.871 134.296 193.489 134.193 193.181C133.994 192.584 133.526 192.116 132.929 191.917C132.621 191.814 132.239 191.814 131.476 191.814H121.088C120.311 191.814 119.922 191.814 119.61 191.92C119.006 192.124 118.536 192.604 118.344 193.212C118.245 193.526 118.253 193.915 118.269 194.692L118.955 228.022C118.971 228.799 118.979 229.188 118.88 229.502C118.688 230.11 118.217 230.59 117.613 230.794C117.301 230.9 116.913 230.9 116.135 230.9H106.611C105.833 230.9 105.444 230.9 105.133 230.794C104.529 230.59 104.058 230.11 103.866 229.502C103.767 229.188 103.775 228.799 103.791 228.022L104.477 194.692C104.493 193.915 104.501 193.526 104.402 193.212C104.21 192.604 103.74 192.124 103.136 191.92C102.824 191.814 102.435 191.814 101.658 191.814H91.2701C90.5069 191.814 90.1254 191.814 89.8172 191.917C89.2204 192.116 88.7521 192.584 88.553 193.181C88.4502 193.489 88.4501 193.871 88.4501 194.634V237.179ZM242.48 191.814C241.717 191.814 241.335 191.814 241.027 191.917C240.43 192.116 239.962 192.584 239.763 193.181C239.66 193.489 239.66 193.871 239.66 194.634V241.923C239.66 242.686 239.66 243.068 239.763 243.376C239.962 243.973 240.43 244.441 241.027 244.64C241.335 244.743 241.717 244.743 242.48 244.743H279.703C279.983 244.743 280.124 244.743 280.259 244.724C280.52 244.688 280.771 244.601 280.998 244.468C281.117 244.399 281.227 244.312 281.447 244.138L286.843 239.89C287.149 239.649 287.302 239.528 287.424 239.389C287.659 239.119 287.818 238.792 287.884 238.44C287.918 238.258 287.918 238.063 287.918 237.674V199.486C287.918 199.155 287.918 198.99 287.893 198.832C287.844 198.528 287.726 198.239 287.547 197.988C287.454 197.858 287.338 197.74 287.105 197.505L282.312 192.652C282.075 192.413 281.957 192.293 281.826 192.197C281.573 192.013 281.28 191.891 280.971 191.84C280.811 191.814 280.643 191.814 280.306 191.814H242.48ZM417.015 230.9C416.252 230.9 415.87 230.9 415.562 231.003C414.965 231.202 414.497 231.67 414.298 232.267C414.195 232.575 414.195 232.957 414.195 233.72V241.923C414.195 242.686 414.195 243.068 414.298 243.376C414.497 243.973 414.965 244.441 415.562 244.64C415.87 244.743 416.252 244.743 417.015 244.743H448.203C448.596 244.743 448.792 244.743 448.976 244.708C449.33 244.641 449.66 244.48 449.93 244.241C450.07 244.117 450.191 243.962 450.431 243.652L457.801 234.155C457.982 233.922 458.073 233.806 458.144 233.681C458.28 233.441 458.365 233.175 458.394 232.9C458.409 232.757 458.403 232.61 458.391 232.315L457.732 215.617C457.703 214.9 457.689 214.542 457.583 214.25C457.379 213.685 456.931 213.242 456.364 213.043C456.071 212.941 455.712 212.93 454.995 212.91L432.215 212.251C431.472 212.229 431.1 212.218 430.8 212.111C430.22 211.902 429.768 211.437 429.576 210.85C429.477 210.547 429.477 210.175 429.477 209.432V208.477C429.477 207.714 429.477 207.332 429.58 207.024C429.779 206.427 430.247 205.959 430.844 205.76C431.152 205.657 431.534 205.657 432.297 205.657H456.042C456.49 205.657 456.714 205.657 456.92 205.613C457.317 205.528 457.679 205.325 457.958 205.029C458.102 204.876 458.219 204.685 458.451 204.302L463.692 195.68C463.77 195.551 463.81 195.486 463.844 195.42C463.964 195.183 464.037 194.925 464.057 194.66C464.062 194.586 464.062 194.51 464.062 194.359C464.062 193.853 464.062 193.6 464.017 193.39C463.85 192.624 463.252 192.026 462.486 191.86C462.277 191.814 462.024 191.814 461.518 191.814H421.808C421.471 191.814 421.303 191.814 421.142 191.84C420.833 191.891 420.541 192.013 420.288 192.197C420.157 192.293 420.038 192.413 419.801 192.652L415.009 197.505C414.776 197.74 414.66 197.858 414.567 197.988C414.388 198.239 414.269 198.528 414.22 198.832C414.195 198.99 414.195 199.155 414.195 199.486V217.528C414.195 217.859 414.195 218.025 414.22 218.183C414.269 218.487 414.388 218.775 414.567 219.026C414.66 219.156 414.776 219.274 415.009 219.509L419.801 224.362C420.038 224.601 420.157 224.721 420.288 224.817C420.541 225.001 420.833 225.123 421.142 225.174C421.303 225.2 421.471 225.2 421.808 225.2H441.134C441.898 225.2 442.279 225.2 442.587 225.303C443.184 225.502 443.653 225.97 443.852 226.567C443.954 226.875 443.954 227.257 443.954 228.02V228.08C443.954 228.843 443.954 229.225 443.852 229.533C443.653 230.13 443.184 230.598 442.587 230.797C442.279 230.9 441.898 230.9 441.134 230.9H417.015ZM258.962 233.041C258.199 233.041 257.818 233.04 257.51 232.938C256.913 232.739 256.444 232.27 256.245 231.673C256.142 231.365 256.142 230.984 256.142 230.221V209.989C256.142 209.226 256.142 208.845 256.245 208.537C256.444 207.94 256.913 207.471 257.51 207.272C257.818 207.169 258.199 207.169 258.962 207.169H269.438C270.201 207.169 270.582 207.169 270.891 207.272C271.487 207.471 271.956 207.94 272.155 208.537C272.258 208.845 272.258 209.226 272.258 209.989V230.221C272.258 230.984 272.258 231.365 272.155 231.673C271.956 232.27 271.487 232.739 270.891 232.938C270.582 233.04 270.201 233.041 269.438 233.041H258.962Z" fill="#2e4d36"/>
<path d="M294.903 191.15C294.105 191.11 293.706 191.089 293.384 191.183C292.759 191.363 292.262 191.837 292.049 192.451C291.94 192.768 291.94 193.168 291.94 193.966V241.923C291.94 242.686 291.94 243.068 292.043 243.376C292.242 243.973 292.71 244.441 293.307 244.64C293.615 244.743 293.997 244.743 294.76 244.743H320.541C321.089 244.743 321.362 244.743 321.605 244.681C322.074 244.562 322.483 244.277 322.758 243.879C322.9 243.672 322.995 243.416 323.186 242.902L332.218 218.516C332.788 216.978 333.073 216.21 333.438 215.881C334.153 215.235 335.228 215.192 335.993 215.778C336.384 216.077 336.729 216.82 337.42 218.306L339.14 222.006C339.618 223.035 339.857 223.55 339.867 223.966C339.887 224.779 339.412 225.523 338.667 225.847C338.285 226.014 337.717 226.014 336.582 226.014H334.878C334.342 226.014 334.074 226.014 333.835 226.074C333.375 226.189 332.97 226.464 332.694 226.85C332.55 227.05 332.452 227.3 332.255 227.798L329.658 234.372C329.263 235.371 329.066 235.87 329.075 236.274C329.093 237.062 329.572 237.765 330.297 238.071C330.67 238.229 331.207 238.229 332.28 238.229H342.501C342.985 238.229 343.226 238.229 343.446 238.279C343.87 238.375 344.25 238.607 344.53 238.939C344.675 239.112 344.786 239.326 345.008 239.756L347.211 244.029C347.433 244.459 347.543 244.674 347.689 244.846C347.969 245.178 348.349 245.41 348.773 245.507C348.992 245.557 349.234 245.557 349.717 245.557H375.181C375.944 245.557 376.326 245.557 376.634 245.454C377.231 245.255 377.699 244.787 377.898 244.19C378.001 243.882 378.001 243.5 378.001 242.737V225.767C378.001 223.562 378.001 222.459 378.271 221.993C378.804 221.076 379.959 220.734 380.905 221.213C381.385 221.457 381.986 222.382 383.186 224.231L395.666 243.458C395.902 243.822 396.02 244.003 396.164 244.149C396.441 244.429 396.795 244.622 397.181 244.701C397.382 244.743 397.598 244.743 398.032 244.743H407.353C408.117 244.743 408.498 244.743 408.806 244.64C409.403 244.441 409.871 243.973 410.071 243.376C410.173 243.068 410.173 242.686 410.173 241.923V194.634C410.173 193.871 410.173 193.489 410.071 193.181C409.871 192.584 409.403 192.116 408.806 191.917C408.498 191.814 408.117 191.814 407.353 191.814H397.712C396.948 191.814 396.567 191.814 396.259 191.917C395.662 192.116 395.193 192.584 394.994 193.181C394.892 193.489 394.892 193.871 394.892 194.634V207.935C394.892 210.224 394.892 211.368 394.616 211.837C394.075 212.76 392.902 213.093 391.955 212.592C391.475 212.337 390.874 211.364 389.672 209.416L379.632 193.153C379.398 192.775 379.282 192.585 379.137 192.434C378.859 192.142 378.499 191.941 378.104 191.858C377.899 191.814 377.677 191.814 377.232 191.814H365.497C364.744 191.814 364.368 191.814 364.062 191.915C363.471 192.11 363.004 192.57 362.8 193.159C362.695 193.463 362.689 193.839 362.678 194.592L362.223 224.955C362.178 227.978 362.155 229.49 361.842 229.972C361.223 230.927 359.934 231.173 359.007 230.515C358.538 230.182 357.958 228.786 356.799 225.994L343.333 193.553C343.131 193.067 343.03 192.823 342.887 192.628C342.609 192.252 342.209 191.984 341.754 191.872C341.519 191.814 341.255 191.814 340.729 191.814H326.926C326.366 191.814 326.086 191.814 325.839 191.878C325.363 192.002 324.948 192.297 324.676 192.707C324.535 192.92 324.443 193.184 324.26 193.713L313.511 224.805C312.319 228.254 311.723 229.978 311.256 230.342C310.331 231.063 308.987 230.838 308.349 229.854C308.026 229.357 308.026 227.533 308.026 223.883V194.495C308.026 193.766 308.026 193.401 307.93 193.102C307.743 192.523 307.304 192.061 306.735 191.845C306.441 191.734 306.077 191.716 305.349 191.679L294.903 191.15Z" fill="#2e4d36"/>
<path fill-rule="evenodd" clip-rule="evenodd" d="M354.616 306.743C353.853 306.743 353.471 306.743 353.163 306.64C352.566 306.441 352.098 305.973 351.899 305.376C351.796 305.068 351.796 304.686 351.796 303.923V256.634C351.796 255.871 351.796 255.49 351.899 255.182C352.098 254.585 352.566 254.116 353.163 253.917C353.471 253.815 353.853 253.814 354.616 253.814H383.813C384.576 253.814 384.958 253.815 385.266 253.917C385.863 254.116 386.331 254.585 386.53 255.182C386.633 255.49 386.633 255.871 386.633 256.634V262.89C386.633 263.653 386.633 264.035 386.53 264.343C386.331 264.94 385.863 265.408 385.266 265.607C384.958 265.71 384.576 265.71 383.813 265.71H367.508C366.745 265.71 366.363 265.71 366.055 265.813C365.458 266.012 364.99 266.48 364.791 267.077C364.688 267.385 364.688 267.767 364.688 268.53V271.095C364.688 271.859 364.688 272.24 364.791 272.548C364.99 273.145 365.458 273.613 366.055 273.812C366.363 273.915 366.745 273.915 367.508 273.915H377.983C378.747 273.915 379.128 273.915 379.436 274.018C380.033 274.217 380.501 274.686 380.7 275.282C380.803 275.591 380.803 275.972 380.803 276.735V284.224C380.803 284.987 380.803 285.369 380.7 285.677C380.501 286.274 380.033 286.742 379.436 286.941C379.128 287.044 378.747 287.044 377.983 287.044H367.508C366.745 287.044 366.363 287.044 366.055 287.147C365.458 287.346 364.99 287.814 364.791 288.411C364.688 288.719 364.688 289.101 364.688 289.864V290.788C364.688 291.551 364.688 291.933 364.791 292.241C364.99 292.838 365.458 293.306 366.055 293.505C366.363 293.608 366.745 293.608 367.508 293.608H382.68C383.063 293.608 383.255 293.608 383.435 293.641C383.781 293.705 384.105 293.86 384.372 294.089C384.512 294.208 384.632 294.357 384.873 294.655L385.054 294.878C386.217 296.318 386.799 297.037 387.273 297.232C388.205 297.613 389.274 297.244 389.771 296.369C390.024 295.923 390.038 294.998 390.066 293.147L390.613 256.592C390.624 255.839 390.63 255.463 390.735 255.159C390.94 254.57 391.406 254.111 391.998 253.915C392.303 253.814 392.68 253.814 393.433 253.814H405.168C405.612 253.814 405.835 253.814 406.039 253.858C406.434 253.941 406.794 254.142 407.072 254.434C407.217 254.586 407.334 254.775 407.567 255.153L417.607 271.417C418.81 273.364 419.411 274.338 419.891 274.592C420.837 275.093 422.01 274.76 422.552 273.837C422.827 273.368 422.827 272.224 422.827 269.935V256.634C422.827 255.871 422.827 255.49 422.93 255.182C423.129 254.585 423.597 254.116 424.194 253.917C424.502 253.815 424.884 253.814 425.647 253.814H435.289C436.052 253.814 436.434 253.815 436.742 253.917C437.339 254.116 437.807 254.585 438.006 255.182C438.109 255.49 438.109 255.871 438.109 256.634V303.923C438.109 304.686 438.109 305.068 438.006 305.376C437.807 305.973 437.339 306.441 436.742 306.64C436.434 306.743 436.052 306.743 435.289 306.743H425.549C425.11 306.743 424.891 306.743 424.688 306.701C424.298 306.619 423.941 306.423 423.663 306.137C423.519 305.988 423.402 305.803 423.167 305.432L411.138 286.452C409.937 284.556 409.336 283.608 408.856 283.359C407.91 282.869 406.746 283.207 406.209 284.127C405.936 284.594 405.936 285.717 405.936 287.961V303.923C405.936 304.686 405.936 305.068 405.834 305.376C405.635 305.973 405.166 306.441 404.569 306.64C404.261 306.743 403.88 306.743 403.116 306.743H354.616ZM303.392 253.814C302.629 253.814 302.247 253.815 301.939 253.917C301.342 254.116 300.874 254.585 300.675 255.182C300.572 255.49 300.572 255.871 300.572 256.634V303.923C300.572 304.686 300.572 305.068 300.675 305.376C300.874 305.973 301.342 306.441 301.939 306.64C302.247 306.743 302.629 306.743 303.392 306.743H340.68C340.942 306.743 341.073 306.743 341.201 306.727C341.445 306.695 341.682 306.618 341.899 306.501C342.012 306.439 342.118 306.363 342.331 306.209L348.466 301.777C348.798 301.537 348.964 301.417 349.096 301.275C349.352 301.002 349.525 300.662 349.597 300.295C349.635 300.104 349.635 299.9 349.635 299.491V262.301C349.635 261.97 349.635 261.804 349.609 261.646C349.56 261.342 349.442 261.054 349.263 260.803C349.17 260.673 349.054 260.555 348.821 260.319L343.224 254.653C342.987 254.413 342.869 254.293 342.738 254.198C342.485 254.014 342.192 253.891 341.884 253.841C341.723 253.814 341.555 253.814 341.218 253.814H303.392ZM78.1857 287.2C77.4225 287.2 77.0408 287.2 76.7327 287.097C76.1359 286.898 75.6677 286.43 75.4686 285.833C75.3658 285.525 75.3657 285.143 75.3657 284.38V283.506C75.3657 282.743 75.3658 282.361 75.4686 282.053C75.6677 281.456 76.1359 280.988 76.7327 280.789C77.0408 280.686 77.4225 280.686 78.1857 280.686H96.8102C97.2317 280.686 97.4583 281.181 97.1827 281.5H97.4794C98.2426 281.5 98.6242 281.5 98.9323 281.603C99.5291 281.802 99.9974 282.271 100.197 282.867C100.299 283.175 100.299 283.557 100.299 284.32V287.637C100.299 288.401 100.299 288.782 100.402 289.09C100.601 289.687 101.07 290.155 101.666 290.355C101.974 290.457 102.356 290.457 103.119 290.457H107.131C107.894 290.457 108.276 290.457 108.584 290.355C109.181 290.155 109.649 289.687 109.848 289.09C109.951 288.782 109.951 288.401 109.951 287.637V283.501C109.951 282.742 109.951 282.363 110.053 282.057C110.251 281.457 110.722 280.986 111.322 280.787C111.628 280.686 112.007 280.686 112.766 280.686C113.525 280.686 113.904 280.686 114.21 280.787C114.81 280.986 115.281 281.457 115.48 282.057C115.581 282.363 115.581 282.742 115.581 283.501V303.928C115.581 304.687 115.581 305.066 115.48 305.372C115.281 305.972 114.81 306.443 114.21 306.641C113.904 306.743 113.525 306.743 112.766 306.743C112.007 306.743 111.628 306.743 111.322 306.641C110.722 306.443 110.251 305.972 110.053 305.372C109.951 305.066 109.951 304.687 109.951 303.928V299.792C109.951 299.028 109.951 298.647 109.848 298.339C109.649 297.742 109.181 297.274 108.584 297.074C108.276 296.972 107.894 296.972 107.131 296.972H103.924C103.16 296.972 102.779 296.972 102.471 297.074C101.874 297.274 101.406 297.742 101.206 298.339C101.104 298.647 101.104 299.028 101.104 299.792V303.923C101.104 304.686 101.104 305.068 101.001 305.376C100.802 305.973 100.333 306.441 99.7365 306.64C99.4284 306.743 99.0468 306.743 98.2836 306.743H97.4892C96.726 306.743 96.3444 306.743 96.0362 306.64C95.4394 306.441 94.971 305.973 94.7719 305.376C94.6691 305.068 94.6692 304.686 94.6692 303.923V284.408L93.0998 286.224C92.8594 286.502 92.7391 286.641 92.6022 286.753C92.3388 286.967 92.0253 287.11 91.6913 287.169C91.5176 287.2 91.3338 287.2 90.9661 287.2H89.446C88.6828 287.2 88.3012 287.2 87.993 287.303C87.3962 287.502 86.928 287.97 86.7289 288.567C86.6261 288.875 86.626 289.257 86.626 290.02V304.33C86.626 304.714 86.626 304.906 86.5998 305.066C86.4611 305.914 85.7967 306.578 84.949 306.717C84.7886 306.743 84.5968 306.743 84.2132 306.743C83.8295 306.743 83.6376 306.743 83.4773 306.717C82.6295 306.578 81.9652 305.914 81.8265 305.066C81.8002 304.906 81.8002 304.714 81.8002 304.33V290.02C81.8002 289.257 81.8001 288.875 81.6973 288.567C81.4982 287.97 81.03 287.502 80.4332 287.303C80.1251 287.2 79.7434 287.2 78.9801 287.2H78.1857ZM120.01 280.686C119.247 280.686 118.865 280.686 118.557 280.789C117.96 280.988 117.492 281.456 117.293 282.053C117.19 282.361 117.19 282.743 117.19 283.506V303.923C117.19 304.686 117.19 305.068 117.293 305.376C117.492 305.973 117.96 306.441 118.557 306.64C118.865 306.743 119.247 306.743 120.01 306.743H131.133C132.646 306.743 133.402 306.743 133.828 306.528C134.661 306.107 135.092 305.165 134.866 304.259C134.75 303.796 134.256 303.224 133.267 302.079L132.511 301.205C132.27 300.927 132.15 300.788 132.013 300.676C131.75 300.462 131.437 300.319 131.102 300.26C130.929 300.229 130.745 300.229 130.377 300.229H124.449C123.549 300.229 122.82 299.5 122.82 298.6C122.82 297.701 123.549 296.972 124.449 296.972H127.239C128.002 296.972 128.384 296.972 128.692 296.869C129.288 296.67 129.757 296.201 129.956 295.605C130.059 295.296 130.059 294.915 130.059 294.152V293.277C130.059 292.514 130.059 292.133 129.956 291.824C129.757 291.228 129.288 290.759 128.692 290.56C128.384 290.457 128.002 290.457 127.239 290.457H124.856C124.823 290.457 124.806 290.457 124.792 290.457C123.709 290.442 122.835 289.568 122.82 288.485C122.82 288.471 122.82 288.455 122.82 288.422C122.82 288.388 122.82 288.372 122.82 288.358C122.835 287.275 123.709 286.401 124.792 286.386C124.806 286.386 124.823 286.386 124.856 286.386H128.847C129.611 286.386 129.992 286.386 130.3 286.283C130.897 286.084 131.365 285.616 131.565 285.019C131.667 284.711 131.667 284.329 131.667 283.566V283.506C131.667 282.743 131.667 282.361 131.565 282.053C131.365 281.456 130.897 280.988 130.3 280.789C129.992 280.686 129.611 280.686 128.847 280.686H120.01ZM122.82 261.143C122.82 260.731 122.82 260.526 122.85 260.354C122.996 259.525 123.645 258.876 124.474 258.73C124.646 258.7 124.851 258.7 125.263 258.7H130.489C130.826 258.7 130.994 258.7 131.155 258.674C131.464 258.623 131.756 258.501 132.009 258.317C132.14 258.221 132.259 258.101 132.496 257.862L132.555 257.802C133.704 256.638 134.279 256.056 134.423 255.586C134.705 254.665 134.291 253.674 133.438 253.228C133.002 253 132.184 253 130.549 253H120.01C119.247 253 118.865 253 118.557 253.103C117.96 253.302 117.492 253.77 117.293 254.367C117.19 254.675 117.19 255.057 117.19 255.82L117.19 275.428C117.19 276.187 117.19 276.566 117.291 276.872C117.49 277.472 117.961 277.943 118.561 278.141C118.867 278.243 119.246 278.243 120.005 278.243C120.764 278.243 121.143 278.243 121.449 278.141C122.049 277.943 122.52 277.472 122.718 276.872C122.82 276.566 122.82 276.187 122.82 275.428V272.92C122.82 272.157 122.82 271.775 122.923 271.467C123.122 270.87 123.59 270.402 124.187 270.203C124.495 270.1 124.877 270.1 125.64 270.1H128.043C128.806 270.1 129.188 270.1 129.496 269.997C130.093 269.798 130.561 269.33 130.76 268.733C130.863 268.425 130.863 268.043 130.863 267.28V266.406C130.863 265.643 130.863 265.261 130.76 264.953C130.561 264.356 130.093 263.888 129.496 263.689C129.188 263.586 128.806 263.586 128.043 263.586H125.263C124.851 263.586 124.646 263.586 124.474 263.556C123.645 263.41 122.996 262.761 122.85 261.932C122.82 261.76 122.82 261.554 122.82 261.143ZM319.163 269.553C318.4 269.553 318.018 269.554 317.71 269.656C317.113 269.855 316.645 270.324 316.446 270.921C316.343 271.229 316.343 271.61 316.343 272.373V292.605C316.343 293.368 316.343 293.749 316.446 294.058C316.645 294.654 317.113 295.123 317.71 295.322C318.018 295.425 318.4 295.425 319.163 295.425H329.638C330.401 295.425 330.783 295.425 331.091 295.322C331.688 295.123 332.156 294.654 332.355 294.058C332.458 293.749 332.458 293.368 332.458 292.605V272.373C332.458 271.61 332.458 271.229 332.355 270.921C332.156 270.324 331.688 269.855 331.091 269.656C330.783 269.554 330.401 269.553 329.638 269.553H319.163Z" fill="#2e4d36"/>
<path fill-rule="evenodd" clip-rule="evenodd" d="M96.339 255.467C96.5756 255.108 96.6939 254.928 96.8376 254.785C97.1144 254.508 97.4663 254.318 97.8498 254.239C98.049 254.198 98.2641 254.198 98.6943 254.198H111.036C111.439 254.198 111.641 254.198 111.829 254.235C112.192 254.305 112.528 254.474 112.801 254.724C112.942 254.854 113.062 255.016 113.302 255.34L114.315 256.708C114.475 256.923 114.554 257.03 114.618 257.145C114.74 257.364 114.82 257.605 114.852 257.855C114.869 257.985 114.869 258.118 114.869 258.386V275.026C114.869 275.357 114.869 275.523 114.844 275.681C114.795 275.985 114.677 276.273 114.498 276.524C114.405 276.654 114.289 276.772 114.056 277.008L112.48 278.603C112.243 278.843 112.125 278.962 111.994 279.058C111.741 279.242 111.448 279.364 111.14 279.415C110.979 279.441 110.811 279.441 110.474 279.441H99.3994C98.9962 279.441 98.7944 279.441 98.606 279.405C98.2433 279.335 97.9072 279.165 97.6349 278.916C97.4934 278.786 97.3735 278.624 97.1334 278.3L96.12 276.932C95.9607 276.717 95.8811 276.609 95.8176 276.495C95.6955 276.275 95.6159 276.034 95.5831 275.785C95.566 275.655 95.5661 275.521 95.5661 275.253V257.486C95.5661 257.243 95.566 257.121 95.5803 257.002C95.6076 256.774 95.6741 256.553 95.7766 256.347C95.83 256.24 95.8969 256.139 96.0308 255.935L96.339 255.467ZM110.07 272.793H103.221C102.457 272.793 102.076 272.793 101.768 272.69C101.171 272.491 100.703 272.023 100.503 271.426C100.401 271.118 100.401 270.736 100.401 269.973V263.486C100.401 262.723 100.401 262.341 100.503 262.033C100.703 261.436 101.171 260.968 101.768 260.769C102.076 260.666 102.457 260.666 103.221 260.666H107.25C108.013 260.666 108.394 260.666 108.703 260.769C109.299 260.968 109.768 261.436 109.967 262.033C110.07 262.341 110.07 262.723 110.07 263.486V272.793Z" fill="#2e4d36"/>
<path d="M286.531 253.814C286.866 253.814 287.034 253.814 287.193 253.84C287.501 253.89 287.792 254.012 288.044 254.194C288.175 254.289 288.293 254.408 288.53 254.645L294.176 260.318C294.411 260.554 294.528 260.672 294.622 260.802C294.803 261.054 294.922 261.344 294.972 261.649C294.997 261.808 294.997 261.974 294.997 262.307V281.263C294.997 281.632 294.997 281.816 294.966 281.99C294.907 282.325 294.762 282.64 294.547 282.903C294.435 283.04 294.296 283.161 294.016 283.401L288.384 288.243C288.267 288.344 288.209 288.394 288.148 288.438C287.846 288.662 287.486 288.795 287.111 288.823C287.036 288.829 286.959 288.829 286.805 288.829C286.102 288.829 285.75 288.829 285.524 288.882C284.323 289.165 283.662 290.457 284.135 291.596C284.224 291.81 284.43 292.096 284.842 292.667L291.773 302.273C292.576 303.387 292.978 303.944 293.058 304.395C293.214 305.277 292.765 306.154 291.959 306.544C291.546 306.743 290.859 306.743 289.486 306.743H277.158C276.728 306.743 276.513 306.743 276.314 306.702C275.93 306.623 275.578 306.434 275.301 306.157C275.157 306.013 275.039 305.833 274.803 305.474L263.234 287.906C263.1 287.702 263.033 287.601 262.98 287.494C262.877 287.288 262.811 287.067 262.784 286.839C262.769 286.72 262.769 286.599 262.769 286.355V280.249C262.769 279.485 262.769 279.104 262.872 278.796C263.071 278.199 263.54 277.731 264.136 277.532C264.445 277.429 264.826 277.429 265.589 277.429H275.231C275.994 277.429 276.376 277.429 276.684 277.326C277.281 277.127 277.749 276.658 277.948 276.062C278.051 275.753 278.051 275.372 278.051 274.609V270.477C278.051 269.714 278.051 269.332 277.948 269.024C277.749 268.427 277.281 267.959 276.684 267.76C276.376 267.657 275.994 267.657 275.231 267.657H263.981C263.218 267.657 262.836 267.657 262.528 267.76C261.931 267.959 261.463 268.427 261.264 269.024C261.161 269.332 261.161 269.714 261.161 270.477V303.923C261.161 304.686 261.161 305.068 261.058 305.376C260.859 305.973 260.391 306.441 259.794 306.64C259.486 306.743 259.104 306.743 258.341 306.743H251.112C250.349 306.743 249.967 306.743 249.659 306.64C249.062 306.441 248.594 305.973 248.395 305.376C248.292 305.068 248.292 304.686 248.292 303.923V256.634C248.292 255.871 248.292 255.49 248.395 255.182C248.594 254.585 249.062 254.116 249.659 253.917C249.967 253.815 250.349 253.814 251.112 253.814H286.531Z" fill="#2e4d36"/>
<path d="M186.422 253C187.633 253 188.239 253 188.632 253.178C189.398 253.525 189.866 254.315 189.801 255.154C189.768 255.584 189.477 256.115 188.894 257.177L183.946 266.194C183.72 266.606 183.607 266.812 183.461 266.978C183.181 267.296 182.808 267.517 182.394 267.609C182.179 267.657 181.944 267.657 181.474 267.657H157.812C157.049 267.657 156.667 267.657 156.359 267.76C155.762 267.959 155.294 268.427 155.095 269.024C154.992 269.332 154.992 269.714 154.992 270.477V289.266C154.992 290.029 154.992 290.411 155.095 290.719C155.294 291.316 155.762 291.784 156.359 291.983C156.667 292.086 157.049 292.086 157.812 292.086H169.867C170.63 292.086 171.012 292.086 171.32 291.983C171.917 291.784 172.385 291.316 172.584 290.719C172.687 290.411 172.687 290.029 172.687 289.266V284.287C172.687 283.955 172.687 283.79 172.661 283.632C172.612 283.328 172.494 283.039 172.315 282.789C172.222 282.658 172.106 282.541 171.873 282.305L170.191 280.602C169.041 279.438 168.467 278.856 168.323 278.386C168.04 277.465 168.454 276.474 169.308 276.028C169.743 275.8 170.561 275.8 172.197 275.8H185.953C186.716 275.8 187.098 275.8 187.406 275.903C188.003 276.102 188.471 276.57 188.67 277.167C188.773 277.475 188.773 277.857 188.773 278.62V296.408L204.964 254.798C205.16 254.296 205.257 254.044 205.4 253.843C205.676 253.454 206.082 253.176 206.544 253.06C206.784 253 207.054 253 207.592 253H224.647C225.186 253 225.455 253 225.695 253.06C226.157 253.176 226.563 253.454 226.839 253.843C226.982 254.044 227.08 254.295 227.275 254.797L246.001 302.9C246.389 303.896 246.583 304.393 246.572 304.797C246.551 305.582 246.072 306.282 245.348 306.587C244.976 306.743 244.442 306.743 243.373 306.743H233.319C232.784 306.743 232.516 306.743 232.277 306.683C231.816 306.568 231.412 306.293 231.135 305.907C230.992 305.707 230.894 305.458 230.697 304.959L228.889 300.384C228.692 299.885 228.594 299.636 228.45 299.436C228.174 299.05 227.769 298.775 227.309 298.66C227.07 298.6 226.802 298.6 226.266 298.6H213.67C212.633 298.6 212.115 298.6 211.748 298.449C211.035 298.154 210.555 297.476 210.514 296.705C210.493 296.309 210.666 295.82 211.011 294.842L213.043 289.082C213.228 288.558 213.32 288.295 213.462 288.085C213.735 287.678 214.148 287.386 214.622 287.263C214.868 287.2 215.146 287.2 215.702 287.2H220.429C221.59 287.2 222.171 287.2 222.557 287.03C223.31 286.697 223.782 285.937 223.747 285.115C223.729 284.693 223.472 284.173 222.958 283.131L219.116 275.353C218.39 273.883 218.027 273.148 217.63 272.859C216.851 272.291 215.777 272.359 215.077 273.022C214.72 273.36 214.454 274.135 213.921 275.686L203.905 304.839C203.723 305.369 203.631 305.634 203.49 305.848C203.218 306.259 202.803 306.555 202.326 306.679C202.079 306.743 201.798 306.743 201.238 306.743H146.571C146.22 306.743 146.044 306.743 145.877 306.715C145.557 306.66 145.254 306.528 144.996 306.33C144.862 306.227 144.742 306.098 144.504 305.841L139.294 300.226C139.078 299.993 138.971 299.877 138.884 299.75C138.719 299.505 138.61 299.227 138.565 298.935C138.541 298.783 138.541 298.625 138.541 298.308V260.718C138.541 260.374 138.541 260.202 138.568 260.039C138.621 259.724 138.748 259.427 138.939 259.171C139.038 259.039 139.162 258.92 139.41 258.682L144.522 253.784C144.756 253.56 144.874 253.447 145.002 253.358C145.25 253.186 145.534 253.072 145.832 253.025C145.987 253 146.149 253 146.473 253H186.422Z" fill="#2e4d36"/>
<path d="M35.2388 224.73C35.1803 226.406 35.1057 228.54 35.0191 231.018L38.4069 233.02C37.0903 229.643 36.0125 226.802 35.2388 224.73Z" fill="#d2a85d"/>
<path d="M39.2923 235.05L35.0372 232.604C34.949 235.128 35.0332 237.98 35.1279 241.062L44.8973 247.812C42.7431 243.142 40.8532 238.803 39.2923 235.05Z" fill="#d2a85d"/>
<path d="M46.0304 250.126L35.1654 242.625C35.3037 247.087 35.5938 251.945 36.0819 256.924L51.7419 261.422C49.6874 257.583 47.7791 253.771 46.0304 250.126Z" fill="#d2a85d"/>
<path d="M36.0875 222.026C36.8244 224.097 38.1697 227.705 40.0675 232.343L41.8849 224.021C39.9969 223.311 38.0706 222.647 36.0875 222.026Z" fill="#d2a85d"/>
<path d="M52.6581 263.108L36.2705 258.378C36.6422 261.952 37.1417 265.553 37.7346 269.112L59.2554 274.32C57.3038 271.219 53.039 263.788 52.6581 263.108Z" fill="#d2a85d"/>
<path d="M60.337 275.989L37.9944 270.615C38.7096 274.556 39.6436 278.427 40.7898 282.199L67.7832 286.587C65.128 283.094 62.6591 279.539 60.337 275.989Z" fill="#d2a85d"/>
<path d="M42.9371 224.425L40.7577 234.159C42.4599 238.078 44.3618 242.601 46.6566 247.46L49.6208 227.369C47.5236 226.331 45.2779 225.334 42.9371 224.425Z" fill="#d2a85d"/>
<path d="M69.0551 288.079L41.275 283.572C42.8097 288.462 44.9533 293.01 47.6276 297.049L77.0608 296.882C74.2527 294.151 71.5793 291.211 69.0551 288.079Z" fill="#d2a85d"/>
<path d="M50.7248 227.89L47.5687 249.261C49.2806 252.905 51.2265 256.694 53.281 260.534L59.3946 232.948C56.5864 231.057 53.6918 229.368 50.7248 227.89Z" fill="#d2a85d"/>
<path d="M78.5022 298.265L48.6096 298.416C49.7409 299.93 50.9862 301.304 52.3286 302.521C60.4279 309.696 71.2843 310.074 84.6721 303.282C82.5384 301.76 80.4785 300.084 78.5022 298.265Z" fill="#d2a85d"/>
<path d="M68.7127 240.511L61.7419 274.729C64.1334 278.396 66.7279 282.048 69.4581 285.497L75.5221 248.284C73.4411 245.446 71.1627 242.846 68.7127 240.511Z" fill="#d2a85d"/>
<path d="M76.4478 249.694L70.4062 286.793C73.0327 290.053 75.8258 293.097 78.7687 295.907L83.202 262.726C82.7477 261.516 82.2536 260.396 81.7107 259.09C80.2016 255.752 78.4394 252.606 76.4478 249.694Z" fill="#d2a85d"/>
<path d="M83.9716 264.913L79.7629 296.93C81.8336 298.817 83.9967 300.542 86.2403 302.096C88.5761 289.646 87.7837 276.659 83.9716 264.913Z" fill="#d2a85d"/>
<path d="M60.309 233.624L54.0194 262.03C54.3836 262.663 58.7521 270.282 60.7915 273.501L67.6785 239.578C65.3292 237.396 62.8676 235.407 60.309 233.624Z" fill="#d2a85d"/>
<path fill-rule="evenodd" clip-rule="evenodd" d="M354.616 306.743C353.853 306.743 353.471 306.743 353.163 306.64C352.566 306.441 352.098 305.973 351.899 305.376C351.796 305.068 351.796 304.686 351.796 303.923V256.634C351.796 255.871 351.796 255.49 351.899 255.182C352.098 254.585 352.566 254.116 353.163 253.917C353.471 253.815 353.853 253.814 354.616 253.814H383.813C384.576 253.814 384.958 253.815 385.266 253.917C385.863 254.116 386.331 254.585 386.53 255.182C386.633 255.49 386.633 255.871 386.633 256.634V262.89C386.633 263.653 386.633 264.035 386.53 264.343C386.331 264.94 385.863 265.408 385.266 265.607C384.958 265.71 384.576 265.71 383.813 265.71H367.508C366.745 265.71 366.363 265.71 366.055 265.813C365.458 266.012 364.99 266.48 364.791 267.077C364.688 267.385 364.688 267.767 364.688 268.53V271.095C364.688 271.859 364.688 272.24 364.791 272.548C364.99 273.145 365.458 273.613 366.055 273.812C366.363 273.915 366.745 273.915 367.508 273.915H377.983C378.747 273.915 379.128 273.915 379.436 274.018C380.033 274.217 380.501 274.686 380.7 275.282C380.803 275.591 380.803 275.972 380.803 276.735V284.224C380.803 284.987 380.803 285.369 380.7 285.677C380.501 286.274 380.033 286.742 379.436 286.941C379.128 287.044 378.747 287.044 377.983 287.044H367.508C366.745 287.044 366.363 287.044 366.055 287.147C365.458 287.346 364.99 287.814 364.791 288.411C364.688 288.719 364.688 289.101 364.688 289.864V290.788C364.688 291.551 364.688 291.933 364.791 292.241C364.99 292.838 365.458 293.306 366.055 293.505C366.363 293.608 366.745 293.608 367.508 293.608H382.68C383.063 293.608 383.255 293.608 383.435 293.641C383.781 293.705 384.105 293.86 384.372 294.089C384.512 294.208 384.632 294.357 384.873 294.655L385.054 294.878C386.217 296.318 386.799 297.037 387.273 297.232C388.205 297.613 389.274 297.244 389.771 296.369C390.024 295.923 390.038 294.998 390.066 293.147L390.613 256.592C390.624 255.839 390.63 255.463 390.735 255.159C390.94 254.57 391.406 254.111 391.998 253.915C392.303 253.814 392.68 253.814 393.433 253.814H405.168C405.612 253.814 405.835 253.814 406.039 253.858C406.434 253.941 406.794 254.142 407.072 254.434C407.217 254.586 407.334 254.775 407.567 255.153L417.607 271.417C418.81 273.364 419.411 274.338 419.891 274.592C420.837 275.093 422.01 274.76 422.552 273.837C422.827 273.368 422.827 272.224 422.827 269.935V256.634C422.827 255.871 422.827 255.49 422.93 255.182C423.129 254.585 423.597 254.116 424.194 253.917C424.502 253.815 424.884 253.814 425.647 253.814H435.289C436.052 253.814 436.434 253.815 436.742 253.917C437.339 254.116 437.807 254.585 438.006 255.182C438.109 255.49 438.109 255.871 438.109 256.634V303.923C438.109 304.686 438.109 305.068 438.006 305.376C437.807 305.973 437.339 306.441 436.742 306.64C436.434 306.743 436.052 306.743 435.289 306.743H425.549C425.11 306.743 424.891 306.743 424.688 306.701C424.298 306.619 423.941 306.423 423.663 306.137C423.519 305.988 423.402 305.803 423.167 305.432L411.138 286.452C409.937 284.556 409.336 283.608 408.856 283.359C407.91 282.869 406.746 283.207 406.209 284.127C405.936 284.594 405.936 285.717 405.936 287.961V303.923C405.936 304.686 405.936 305.068 405.834 305.376C405.635 305.973 405.166 306.441 404.569 306.64C404.261 306.743 403.88 306.743 403.116 306.743H354.616ZM303.392 253.814C302.629 253.814 302.247 253.815 301.939 253.917C301.342 254.116 300.874 254.585 300.675 255.182C300.572 255.49 300.572 255.871 300.572 256.634V303.923C300.572 304.686 300.572 305.068 300.675 305.376C300.874 305.973 301.342 306.441 301.939 306.64C302.247 306.743 302.629 306.743 303.392 306.743H340.68C340.942 306.743 341.073 306.743 341.201 306.727C341.445 306.695 341.682 306.618 341.899 306.501C342.012 306.439 342.118 306.363 342.331 306.209L348.466 301.777C348.798 301.537 348.964 301.417 349.096 301.275C349.352 301.002 349.525 300.662 349.597 300.295C349.635 300.104 349.635 299.9 349.635 299.491V262.301C349.635 261.97 349.635 261.804 349.609 261.646C349.56 261.342 349.442 261.054 349.263 260.803C349.17 260.673 349.054 260.555 348.821 260.319L343.224 254.653C342.987 254.413 342.869 254.293 342.738 254.198C342.485 254.014 342.192 253.891 341.884 253.841C341.723 253.814 341.555 253.814 341.218 253.814H303.392ZM78.1857 287.2C77.4225 287.2 77.0408 287.2 76.7327 287.097C76.1359 286.898 75.6677 286.43 75.4686 285.833C75.3658 285.525 75.3657 285.143 75.3657 284.38V283.506C75.3657 282.743 75.3658 282.361 75.4686 282.053C75.6677 281.456 76.1359 280.988 76.7327 280.789C77.0408 280.686 77.4225 280.686 78.1857 280.686H96.8102C97.2317 280.686 97.4583 281.181 97.1827 281.5H97.4794C98.2426 281.5 98.6242 281.5 98.9323 281.603C99.5291 281.802 99.9974 282.271 100.197 282.867C100.299 283.175 100.299 283.557 100.299 284.32V287.637C100.299 288.401 100.299 288.782 100.402 289.09C100.601 289.687 101.07 290.155 101.666 290.355C101.974 290.457 102.356 290.457 103.119 290.457H107.131C107.894 290.457 108.276 290.457 108.584 290.355C109.181 290.155 109.649 289.687 109.848 289.09C109.951 288.782 109.951 288.401 109.951 287.637V283.501C109.951 282.742 109.951 282.363 110.053 282.057C110.251 281.457 110.722 280.986 111.322 280.787C111.628 280.686 112.007 280.686 112.766 280.686C113.525 280.686 113.904 280.686 114.21 280.787C114.81 280.986 115.281 281.457 115.48 282.057C115.581 282.363 115.581 282.742 115.581 283.501V303.928C115.581 304.687 115.581 305.066 115.48 305.372C115.281 305.972 114.81 306.443 114.21 306.641C113.904 306.743 113.525 306.743 112.766 306.743C112.007 306.743 111.628 306.743 111.322 306.641C110.722 306.443 110.251 305.972 110.053 305.372C109.951 305.066 109.951 304.687 109.951 303.928V299.792C109.951 299.028 109.951 298.647 109.848 298.339C109.649 297.742 109.181 297.274 108.584 297.074C108.276 296.972 107.894 296.972 107.131 296.972H103.924C103.16 296.972 102.779 296.972 102.471 297.074C101.874 297.274 101.406 297.742 101.206 298.339C101.104 298.647 101.104 299.028 101.104 299.792V303.923C101.104 304.686 101.104 305.068 101.001 305.376C100.802 305.973 100.333 306.441 99.7365 306.64C99.4284 306.743 99.0468 306.743 98.2836 306.743H97.4892C96.726 306.743 96.3444 306.743 96.0362 306.64C95.4394 306.441 94.971 305.973 94.7719 305.376C94.6691 305.068 94.6692 304.686 94.6692 303.923V284.408L93.0998 286.224C92.8594 286.502 92.7391 286.641 92.6022 286.753C92.3388 286.967 92.0253 287.11 91.6913 287.169C91.5176 287.2 91.3338 287.2 90.9661 287.2H89.446C88.6828 287.2 88.3012 287.2 87.993 287.303C87.3962 287.502 86.928 287.97 86.7289 288.567C86.6261 288.875 86.626 289.257 86.626 290.02V304.33C86.626 304.714 86.626 304.906 86.5998 305.066C86.4611 305.914 85.7967 306.578 84.949 306.717C84.7886 306.743 84.5968 306.743 84.2132 306.743C83.8295 306.743 83.6376 306.743 83.4773 306.717C82.6295 306.578 81.9652 305.914 81.8265 305.066C81.8002 304.906 81.8002 304.714 81.8002 304.33V290.02C81.8002 289.257 81.8001 288.875 81.6973 288.567C81.4982 287.97 81.03 287.502 80.4332 287.303C80.1251 287.2 79.7434 287.2 78.9801 287.2H78.1857ZM120.01 280.686C119.247 280.686 118.865 280.686 118.557 280.789C117.96 280.988 117.492 281.456 117.293 282.053C117.19 282.361 117.19 282.743 117.19 283.506V303.923C117.19 304.686 117.19 305.068 117.293 305.376C117.492 305.973 117.96 306.441 118.557 306.64C118.865 306.743 119.247 306.743 120.01 306.743H131.133C132.646 306.743 133.402 306.743 133.828 306.528C134.661 306.107 135.092 305.165 134.866 304.259C134.75 303.796 134.256 303.224 133.267 302.079L132.511 301.205C132.27 300.927 132.15 300.788 132.013 300.676C131.75 300.462 131.437 300.319 131.102 300.26C130.929 300.229 130.745 300.229 130.377 300.229H124.449C123.549 300.229 122.82 299.5 122.82 298.6C122.82 297.701 123.549 296.972 124.449 296.972H127.239C128.002 296.972 128.384 296.972 128.692 296.869C129.288 296.67 129.757 296.201 129.956 295.605C130.059 295.296 130.059 294.915 130.059 294.152V293.277C130.059 292.514 130.059 292.133 129.956 291.824C129.757 291.228 129.288 290.759 128.692 290.56C128.384 290.457 128.002 290.457 127.239 290.457H124.856C124.823 290.457 124.806 290.457 124.792 290.457C123.709 290.442 122.835 289.568 122.82 288.485C122.82 288.471 122.82 288.455 122.82 288.422C122.82 288.388 122.82 288.372 122.82 288.358C122.835 287.275 123.709 286.401 124.792 286.386C124.806 286.386 124.823 286.386 124.856 286.386H128.847C129.611 286.386 129.992 286.386 130.3 286.283C130.897 286.084 131.365 285.616 131.565 285.019C131.667 284.711 131.667 284.329 131.667 283.566V283.506C131.667 282.743 131.667 282.361 131.565 282.053C131.365 281.456 130.897 280.988 130.3 280.789C129.992 280.686 129.611 280.686 128.847 280.686H120.01ZM122.82 261.143C122.82 260.731 122.82 260.526 122.85 260.354C122.996 259.525 123.645 258.876 124.474 258.73C124.646 258.7 124.851 258.7 125.263 258.7H130.489C130.826 258.7 130.994 258.7 131.155 258.674C131.464 258.623 131.756 258.501 132.009 258.317C132.14 258.221 132.259 258.101 132.496 257.862L132.555 257.802C133.704 256.638 134.279 256.056 134.423 255.586C134.705 254.665 134.291 253.674 133.438 253.228C133.002 253 132.184 253 130.549 253H120.01C119.247 253 118.865 253 118.557 253.103C117.96 253.302 117.492 253.77 117.293 254.367C117.19 254.675 117.19 255.057 117.19 255.82L117.19 275.428C117.19 276.187 117.19 276.566 117.291 276.872C117.49 277.472 117.961 277.943 118.561 278.141C118.867 278.243 119.246 278.243 120.005 278.243C120.764 278.243 121.143 278.243 121.449 278.141C122.049 277.943 122.52 277.472 122.718 276.872C122.82 276.566 122.82 276.187 122.82 275.428V272.92C122.82 272.157 122.82 271.775 122.923 271.467C123.122 270.87 123.59 270.402 124.187 270.203C124.495 270.1 124.877 270.1 125.64 270.1H128.043C128.806 270.1 129.188 270.1 129.496 269.997C130.093 269.798 130.561 269.33 130.76 268.733C130.863 268.425 130.863 268.043 130.863 267.28V266.406C130.863 265.643 130.863 265.261 130.76 264.953C130.561 264.356 130.093 263.888 129.496 263.689C129.188 263.586 128.806 263.586 128.043 263.586H125.263C124.851 263.586 124.646 263.586 124.474 263.556C123.645 263.41 122.996 262.761 122.85 261.932C122.82 261.76 122.82 261.554 122.82 261.143ZM319.163 269.553C318.4 269.553 318.018 269.554 317.71 269.656C317.113 269.855 316.645 270.324 316.446 270.921C316.343 271.229 316.343 271.61 316.343 272.373V292.605C316.343 293.368 316.343 293.749 316.446 294.058C316.645 294.654 317.113 295.123 317.71 295.322C318.018 295.425 318.4 295.425 319.163 295.425H329.638C330.401 295.425 330.783 295.425 331.091 295.322C331.688 295.123 332.156 294.654 332.355 294.058C332.458 293.749 332.458 293.368 332.458 292.605V272.373C332.458 271.61 332.458 271.229 332.355 270.921C332.156 270.324 331.688 269.855 331.091 269.656C330.783 269.554 330.401 269.553 329.638 269.553H319.163Z" fill="#2e4d36"/>
</svg>
